<mxfile host="app.diagrams.net" agent="Mozilla/5.0 (Macintosh; Intel Mac OS X 10_15_7) AppleWebKit/605.1.15 (KHTML, like Gecko) Version/17.6 Safari/605.1.15" version="28.2.3">
  <diagram name="Page-1" id="M1b_SSH262KM_gCrv3iD">
    <mxGraphModel dx="728" dy="502" grid="1" gridSize="10" guides="1" tooltips="1" connect="1" arrows="1" fold="1" page="1" pageScale="1" pageWidth="1600" pageHeight="1200" background="light-dark(#FFFFFF,#FFFFFF)" math="0" shadow="0">
      <root>
        <mxCell id="0" />
        <mxCell id="1" parent="0" />
        <mxCell id="Ds--RXpLd-UvwMyHQC07-1" value="&lt;span style=&quot;&quot;&gt;User&lt;/span&gt;" style="rounded=0;whiteSpace=wrap;html=1;fillColor=#EEEEEE;strokeColor=#FFFFFF;fontColor=#1A1A1A;labelBackgroundColor=none;" parent="1" vertex="1">
          <mxGeometry x="370" y="310" width="120" height="50" as="geometry" />
        </mxCell>
        <mxCell id="5pMmQ2T5jr19oePLC_a3-2" value="" style="endArrow=none;html=1;rounded=0;exitX=-0.004;exitY=0.162;exitDx=0;exitDy=0;exitPerimeter=0;strokeColor=#FFFFFF;fontColor=default;labelBackgroundColor=none;" edge="1" parent="1" source="Ds--RXpLd-UvwMyHQC07-1" target="5pMmQ2T5jr19oePLC_a3-3">
          <mxGeometry width="50" height="50" relative="1" as="geometry">
            <mxPoint x="400" y="350" as="sourcePoint" />
            <mxPoint x="430" y="240" as="targetPoint" />
          </mxGeometry>
        </mxCell>
        <mxCell id="5pMmQ2T5jr19oePLC_a3-3" value="&lt;u&gt;id&lt;/u&gt;" style="ellipse;whiteSpace=wrap;html=1;strokeColor=#FFFFFF;fontColor=#1A1A1A;fillColor=#EEEEEE;labelBackgroundColor=none;" vertex="1" parent="1">
          <mxGeometry x="250" y="280" width="80" height="40" as="geometry" />
        </mxCell>
        <mxCell id="5pMmQ2T5jr19oePLC_a3-4" value="email" style="ellipse;whiteSpace=wrap;html=1;strokeColor=#FFFFFF;fontColor=#1A1A1A;fillColor=#EEEEEE;labelBackgroundColor=none;" vertex="1" parent="1">
          <mxGeometry x="300" y="240" width="80" height="40" as="geometry" />
        </mxCell>
        <mxCell id="5pMmQ2T5jr19oePLC_a3-5" value="firstname" style="ellipse;whiteSpace=wrap;html=1;strokeColor=#FFFFFF;fontColor=#1A1A1A;fillColor=#EEEEEE;labelBackgroundColor=none;" vertex="1" parent="1">
          <mxGeometry x="345" y="190" width="80" height="40" as="geometry" />
        </mxCell>
        <mxCell id="5pMmQ2T5jr19oePLC_a3-7" value="lastname" style="ellipse;whiteSpace=wrap;html=1;strokeColor=#FFFFFF;fontColor=#1A1A1A;fillColor=#EEEEEE;labelBackgroundColor=none;" vertex="1" parent="1">
          <mxGeometry x="425" y="200" width="80" height="40" as="geometry" />
        </mxCell>
        <mxCell id="5pMmQ2T5jr19oePLC_a3-8" value="profilePicture" style="ellipse;whiteSpace=wrap;html=1;strokeColor=#FFFFFF;fontColor=#1A1A1A;fillColor=#EEEEEE;labelBackgroundColor=none;" vertex="1" parent="1">
          <mxGeometry x="480" y="230" width="80" height="40" as="geometry" />
        </mxCell>
        <mxCell id="5pMmQ2T5jr19oePLC_a3-10" value="" style="endArrow=none;html=1;rounded=0;exitX=0;exitY=1;exitDx=0;exitDy=0;strokeColor=#FFFFFF;fontColor=default;labelBackgroundColor=none;" edge="1" parent="1" source="5pMmQ2T5jr19oePLC_a3-8">
          <mxGeometry width="50" height="50" relative="1" as="geometry">
            <mxPoint x="400" y="370" as="sourcePoint" />
            <mxPoint x="460" y="309" as="targetPoint" />
            <Array as="points" />
          </mxGeometry>
        </mxCell>
        <mxCell id="5pMmQ2T5jr19oePLC_a3-11" value="" style="endArrow=none;html=1;rounded=0;entryX=0.315;entryY=1;entryDx=0;entryDy=0;entryPerimeter=0;strokeColor=#FFFFFF;fontColor=default;labelBackgroundColor=none;" edge="1" parent="1" target="5pMmQ2T5jr19oePLC_a3-7">
          <mxGeometry width="50" height="50" relative="1" as="geometry">
            <mxPoint x="440" y="309" as="sourcePoint" />
            <mxPoint x="450" y="320" as="targetPoint" />
          </mxGeometry>
        </mxCell>
        <mxCell id="5pMmQ2T5jr19oePLC_a3-12" value="" style="endArrow=none;html=1;rounded=0;entryX=0.8;entryY=0.013;entryDx=0;entryDy=0;entryPerimeter=0;strokeColor=#FFFFFF;fontColor=default;labelBackgroundColor=none;" edge="1" parent="1" source="5pMmQ2T5jr19oePLC_a3-5" target="Ds--RXpLd-UvwMyHQC07-1">
          <mxGeometry width="50" height="50" relative="1" as="geometry">
            <mxPoint x="400" y="370" as="sourcePoint" />
            <mxPoint x="450" y="320" as="targetPoint" />
            <Array as="points">
              <mxPoint x="420" y="310" />
            </Array>
          </mxGeometry>
        </mxCell>
        <mxCell id="5pMmQ2T5jr19oePLC_a3-13" value="" style="endArrow=none;html=1;rounded=0;entryX=0.211;entryY=-0.06;entryDx=0;entryDy=0;entryPerimeter=0;strokeColor=#FFFFFF;fontColor=default;labelBackgroundColor=none;" edge="1" parent="1" source="5pMmQ2T5jr19oePLC_a3-4" target="Ds--RXpLd-UvwMyHQC07-1">
          <mxGeometry width="50" height="50" relative="1" as="geometry">
            <mxPoint x="400" y="370" as="sourcePoint" />
            <mxPoint x="450" y="320" as="targetPoint" />
          </mxGeometry>
        </mxCell>
        <mxCell id="5pMmQ2T5jr19oePLC_a3-16" value="id" style="ellipse;whiteSpace=wrap;html=1;strokeColor=#FFFFFF;fontColor=#1A1A1A;fillColor=#EEEEEE;labelBackgroundColor=none;" vertex="1" parent="1">
          <mxGeometry x="540" y="270" width="80" height="40" as="geometry" />
        </mxCell>
        <mxCell id="5pMmQ2T5jr19oePLC_a3-17" value="" style="endArrow=none;html=1;rounded=0;entryX=0;entryY=1;entryDx=0;entryDy=0;exitX=1;exitY=0.25;exitDx=0;exitDy=0;strokeColor=#FFFFFF;fontColor=default;labelBackgroundColor=none;" edge="1" parent="1" source="Ds--RXpLd-UvwMyHQC07-1" target="5pMmQ2T5jr19oePLC_a3-16">
          <mxGeometry width="50" height="50" relative="1" as="geometry">
            <mxPoint x="430" y="390" as="sourcePoint" />
            <mxPoint x="480" y="340" as="targetPoint" />
          </mxGeometry>
        </mxCell>
        <mxCell id="5pMmQ2T5jr19oePLC_a3-18" value="" style="endArrow=none;html=1;rounded=0;entryX=1;entryY=0.5;entryDx=0;entryDy=0;exitX=0;exitY=0.5;exitDx=0;exitDy=0;strokeColor=#FFFFFF;fontColor=default;labelBackgroundColor=none;" edge="1" parent="1" source="5pMmQ2T5jr19oePLC_a3-19" target="Ds--RXpLd-UvwMyHQC07-1">
          <mxGeometry width="50" height="50" relative="1" as="geometry">
            <mxPoint x="590" y="350" as="sourcePoint" />
            <mxPoint x="480" y="340" as="targetPoint" />
          </mxGeometry>
        </mxCell>
        <mxCell id="5pMmQ2T5jr19oePLC_a3-19" value="posts" style="rhombus;whiteSpace=wrap;html=1;strokeColor=#FFFFFF;fontColor=#1A1A1A;fillColor=#EEEEEE;labelBackgroundColor=none;" vertex="1" parent="1">
          <mxGeometry x="600" y="310" width="80" height="80" as="geometry" />
        </mxCell>
        <mxCell id="5pMmQ2T5jr19oePLC_a3-20" value="" style="endArrow=none;html=1;rounded=0;exitX=1;exitY=0.5;exitDx=0;exitDy=0;strokeColor=#FFFFFF;fontColor=default;labelBackgroundColor=none;" edge="1" parent="1" source="5pMmQ2T5jr19oePLC_a3-19">
          <mxGeometry width="50" height="50" relative="1" as="geometry">
            <mxPoint x="630" y="390" as="sourcePoint" />
            <mxPoint x="810" y="350" as="targetPoint" />
          </mxGeometry>
        </mxCell>
        <mxCell id="5pMmQ2T5jr19oePLC_a3-23" value="1" style="text;html=1;align=center;verticalAlign=middle;resizable=0;points=[];autosize=1;strokeColor=none;fillColor=none;fontColor=light-dark(#000000,#000000);" vertex="1" parent="1">
          <mxGeometry x="560" y="320" width="30" height="30" as="geometry" />
        </mxCell>
        <mxCell id="5pMmQ2T5jr19oePLC_a3-24" value="&lt;span style=&quot;caret-color: rgba(0, 0, 0, 0);&quot;&gt;N&lt;/span&gt;" style="text;html=1;align=center;verticalAlign=middle;resizable=0;points=[];autosize=1;strokeColor=none;fillColor=none;fontColor=light-dark(#000000,#000000);" vertex="1" parent="1">
          <mxGeometry x="680" y="320" width="30" height="30" as="geometry" />
        </mxCell>
        <mxCell id="5pMmQ2T5jr19oePLC_a3-25" value="Post" style="rounded=0;whiteSpace=wrap;html=1;strokeColor=#FFFFFF;fontColor=#1A1A1A;fillColor=#EEEEEE;" vertex="1" parent="1">
          <mxGeometry x="810" y="320" width="120" height="60" as="geometry" />
        </mxCell>
        <mxCell id="5pMmQ2T5jr19oePLC_a3-26" value="" style="endArrow=none;html=1;rounded=0;strokeColor=#FFFFFF;fontColor=#FFFFFF;entryX=1;entryY=1;entryDx=0;entryDy=0;" edge="1" parent="1" target="5pMmQ2T5jr19oePLC_a3-27">
          <mxGeometry width="50" height="50" relative="1" as="geometry">
            <mxPoint x="820" y="320" as="sourcePoint" />
            <mxPoint x="800" y="290" as="targetPoint" />
          </mxGeometry>
        </mxCell>
        <mxCell id="5pMmQ2T5jr19oePLC_a3-27" value="&lt;u&gt;id&lt;/u&gt;" style="ellipse;whiteSpace=wrap;html=1;strokeColor=#FFFFFF;fontColor=#1A1A1A;fillColor=#EEEEEE;labelBackgroundColor=none;" vertex="1" parent="1">
          <mxGeometry x="710" y="260" width="80" height="40" as="geometry" />
        </mxCell>
      </root>
    </mxGraphModel>
  </diagram>
</mxfile>
